<svg version="1.1" id="securityscorecard-logo" xmlns="http://www.w3.org/2000/svg" xmlns:xlink="http://www.w3.org/1999/xlink" x="0px" y="0px" viewBox="0 0 986 198" xml:space="preserve">
<g style="fill: #52989e;">
<polygon class="st0" points="139.6,124.1 139.6,124.1 139.6,160.1 170.9,142 170.8,105.9 139.6,87.9       "></polygon>
<polygon class="st0" points="64.8,167.2 96,185.2 127.2,167.2 127.2,131.3        "></polygon>
<polygon class="st0" points="170.8,91.5 170.8,55.6 139.6,37.6 108.5,55.5        "></polygon>
<polygon class="st0" points="64.8,80.8 64.8,116.8 96,134.8 127.2,116.9 127.2,80.8 96,62.8       "></polygon>
<polygon class="st0" points="21.1,106 21.1,142 52.3,160 83.5,142        "></polygon>
<polygon class="st0" points="52.3,37.6 21.1,55.6 21.1,91.6 52.3,109.6       "></polygon>
<polygon class="st0" points="96,48.4 96,48.4 127.2,30.4 96,12.4 64.8,30.4 64.8,66.4         "></polygon>
</g>
</svg>